<?xml version="1.0" encoding="UTF-8" standalone="no"?>
<svg
   xmlns:dc="http://purl.org/dc/elements/1.1/"
   xmlns:cc="http://creativecommons.org/ns#"
   xmlns:rdf="http://www.w3.org/1999/02/22-rdf-syntax-ns#"
   xmlns:svg="http://www.w3.org/2000/svg"
   xmlns="http://www.w3.org/2000/svg"
   xmlns:sodipodi="http://sodipodi.sourceforge.net/DTD/sodipodi-0.dtd"
   xmlns:inkscape="http://www.inkscape.org/namespaces/inkscape"
   enable-background="new 0 0 512 512"
   height="10mm"
   version="1.1"
   viewBox="0 0 37.795278 37.795278"
   width="10mm"
   xml:space="preserve"
   id="svg5"
   sodipodi:docname="head.svg"
   inkscape:version="1.0.1 (3bc2e813f5, 2020-09-07)"
   inkscape:export-filename="/media/HDD/DP/Disprop/Icons/page.png"
   inkscape:export-xdpi="162"
   inkscape:export-ydpi="162"><metadata
   id="metadata11"><rdf:RDF><cc:Work
       rdf:about=""><dc:format>image/svg+xml</dc:format><dc:type
         rdf:resource="http://purl.org/dc/dcmitype/StillImage" /><dc:title /></cc:Work></rdf:RDF></metadata><defs
   id="defs9" /><sodipodi:namedview
   pagecolor="#ffffff"
   bordercolor="#666666"
   borderopacity="1"
   objecttolerance="10"
   gridtolerance="10"
   guidetolerance="10"
   inkscape:pageopacity="0"
   inkscape:pageshadow="2"
   inkscape:window-width="1920"
   inkscape:window-height="1015"
   id="namedview7"
   showgrid="false"
   inkscape:zoom="10.429825"
   inkscape:cx="-10.868015"
   inkscape:cy="19.854839"
   inkscape:window-x="0"
   inkscape:window-y="0"
   inkscape:window-maximized="1"
   inkscape:current-layer="svg5"
   units="mm"
   inkscape:document-rotation="0" /><rect
   style="opacity:0.98999999;fill:#fefefe;fill-opacity:1;stroke:none;stroke-width:3.97494364;stroke-linecap:round;stroke-linejoin:round;stroke-miterlimit:100;stroke-dasharray:none;stroke-dashoffset:0;stroke-opacity:1"
   id="rect4533"
   width="37.795277"
   height="37.795277"
   x="-5.2564724e-07"
   y="-5.2564724e-07"
   inkscape:export-filename="/media/HDD/DP/Disprop/Icons/head.png"
   inkscape:export-xdpi="162"
   inkscape:export-ydpi="162" />


<path
   d="m 24.52799,3.3860401 c -3.177035,-0.8986832 -6.084043,-1.139176 -8.653519,-0.7088206 -1.73677,0.243344 -3.362262,0.996621 -4.67062,2.1644343 -1.033559,1.0193126 -1.8063686,2.2725971 -2.2530375,3.6538016 v 0 L 8.8495534,8.7823589 C 8.7440738,9.0945775 8.6301565,9.4025769 8.5162391,9.7147955 8.2761861,10.341407 8.0760773,10.982599 7.9171164,11.634519 c -0.147775,0.622704 -0.1635844,1.269445 -0.04641,1.898627 0.050625,0.257369 0.1096988,0.480984 0.1687668,0.683504 0.1979788,0.433059 0.1776059,0.934564 -0.054851,1.350136 -0.3380982,0.682963 -0.7543652,1.324353 -1.2404358,1.911283 -0.067507,0.08439 -0.1476708,0.168767 -0.2278347,0.25737 -0.4219171,0.472547 -1.0421351,1.122299 -0.8438342,1.97879 0.1259547,0.659341 0.5697917,1.213742 1.1855863,1.480929 l 0.092822,0.03375 c 0.088484,0.02625 0.1734854,0.06309 0.2531503,0.109698 0.00185,0.01683 0.00185,0.03381 0,0.05064 0,0.177205 -0.029538,0.421917 -0.050635,0.628656 -0.054851,0.480985 -0.088604,0.772109 0.067507,1.004163 0.1301926,0.174531 0.2711035,0.340805 0.421917,0.497862 -0.1682096,0.212336 -0.2482795,0.481249 -0.2236162,0.751012 0.088751,0.306852 0.2611371,0.582956 0.4978617,0.797423 0.1003017,0.109491 0.1919901,0.226569 0.2742463,0.350191 -0.031484,0.134424 -0.070938,0.266858 -0.1181368,0.396602 -0.1633574,0.418244 -0.2477611,0.863149 -0.2489308,1.312162 0.080164,1.156053 0.9999437,1.928161 2.7298037,2.291009 1.01282,0.183919 2.04364,0.249052 3.071556,0.194082 h 0.632875 c 0.182119,0.434907 0.319253,0.887308 0.40926,1.350136 0.05063,0.232054 0.10126,0.464108 0.160329,0.670848 0.253149,0.928217 0.751012,2.831063 0.755231,2.831063 l 0.160328,0.615999 12.65751,-6.024976 -0.15189,-0.447232 c 0,-0.02531 -0.983066,-2.95342 -0.236273,-4.915333 0.424286,-0.929101 0.932706,-1.817425 1.518901,-2.653858 1.168711,-1.793148 2.434461,-3.818349 2.590571,-5.792921 0.194082,-2.8606 -0.15611,-9.7505062 -7.594506,-11.8600913 z"
   id="path834"
   sodipodi:nodetypes="cccsccccccccccccccccccccccccccccccccccc"
   style="fill:#e97b00;fill-opacity:1;stroke:#743f00;stroke-width:1.15955;stroke-miterlimit:4;stroke-dasharray:none;stroke-opacity:1"
   inkscape:export-filename="/media/HDD/DP/Disprop/Icons/head.png"
   inkscape:export-xdpi="162"
   inkscape:export-ydpi="162" /></svg>
