<?xml version="1.0" encoding="UTF-8" standalone="no"?>
<!-- Created with Inkscape (http://www.inkscape.org/) -->

<svg
   xmlns:dc="http://purl.org/dc/elements/1.1/"
   xmlns:cc="http://creativecommons.org/ns#"
   xmlns:rdf="http://www.w3.org/1999/02/22-rdf-syntax-ns#"
   xmlns:svg="http://www.w3.org/2000/svg"
   xmlns="http://www.w3.org/2000/svg"
   xmlns:sodipodi="http://sodipodi.sourceforge.net/DTD/sodipodi-0.dtd"
   xmlns:inkscape="http://www.inkscape.org/namespaces/inkscape"
   version="1.0"
   width="133.67661"
   height="144.56302"
   id="svg2"
   sodipodi:version="0.32"
   inkscape:version="0.92.5 (2060ec1f9f, 2020-04-08)"
   sodipodi:docname="Logo2.svg"
   inkscape:output_extension="org.inkscape.output.svg.inkscape"
   inkscape:export-filename="/media/HDD/DP/Disprop/Icons/Logo.png"
   inkscape:export-xdpi="177"
   inkscape:export-ydpi="177">
  <metadata
     id="metadata2388">
    <rdf:RDF>
      <cc:Work
         rdf:about="">
        <dc:format>image/svg+xml</dc:format>
        <dc:type
           rdf:resource="http://purl.org/dc/dcmitype/StillImage" />
        <dc:title />
      </cc:Work>
    </rdf:RDF>
  </metadata>
  <sodipodi:namedview
     inkscape:window-height="1015"
     inkscape:window-width="1920"
     inkscape:pageshadow="2"
     inkscape:pageopacity="0.0"
     guidetolerance="10.0"
     gridtolerance="10.0"
     objecttolerance="10.0"
     borderopacity="1.0"
     bordercolor="#666666"
     pagecolor="#ffffff"
     id="base"
     showgrid="false"
     inkscape:zoom="2"
     inkscape:cx="34.041092"
     inkscape:cy="104.87329"
     inkscape:window-x="0"
     inkscape:window-y="0"
     inkscape:current-layer="svg2"
     showguides="true"
     inkscape:guide-bbox="true"
     fit-margin-top="3"
     fit-margin-left="3"
     fit-margin-right="3"
     fit-margin-bottom="3"
     inkscape:window-maximized="1">
    <inkscape:grid
       type="xygrid"
       id="grid2421"
       visible="true"
       enabled="true"
       originx="-433.16165"
       originy="-319.43697" />
  </sodipodi:namedview>
  <defs
     id="defs4">
    <inkscape:perspective
       sodipodi:type="inkscape:persp3d"
       inkscape:vp_x="0 : 245 : 1"
       inkscape:vp_y="0 : 1000 : 0"
       inkscape:vp_z="1000 : 245 : 1"
       inkscape:persp3d-origin="500 : 163.33333 : 1"
       id="perspective2390" />
  </defs>
  <rect
     style="fill:#ffffff;fill-opacity:1;stroke-width:3.23977375"
     id="rect814"
     width="133.67661"
     height="144.56302"
     x="0"
     y="0"
     rx="0"
     ry="0" />
  <path
     inkscape:connector-curvature="0"
     style="fill:#800000"
     d="m 3,3.0000024 v 1.076094 136.4108136 1.0761 h 1.06948 125.53765 1.06948 V 140.48691 4.0760964 3.0000024 H 129.60713 4.06948 Z m 124.68837,2.152189 h 0.84929 V 138.20813 c -0.22197,0.6276 -0.6919,0.72503 -3.0197,0.94948 -0.98963,0.0954 -8.97878,0.17675 -20.41442,0.25321 H 5.29623 c -0.0592,-0.14201 -0.10866,-0.50378 -0.15728,-0.98115 V 70.540766 C 5.19095,66.85183 5.24668,63.189576 5.29623,58.735374 5.4349,46.268413 5.60121,29.233508 5.70515,20.850514 L 5.92533,5.5952884 12.21637,5.4053894 c 3.47189,-0.107468 31.04669,-0.189869 61.2747,-0.189899 h 54.1973 z m -59.89068,1.740741 c -26.01261,-1.02e-4 -52.19955,0.01477 -55.54986,0.03165 L 7.93846,6.9562324 7.68683,9.2033712 C 7.14896,14.539726 6.42511,123.28337 6.86898,131.9098 l 0.2831,5.50707 9.18492,0.3165 c 14.91674,0.52901 92.33171,0.3702 105.90962,-0.22154 l 4.65536,-0.22156 0.0315,-2.15219 c 0.023,-1.18219 0.0926,-17.20594 0.12582,-35.637709 0.0359,-20.038764 0.0452,-28.018275 0.22018,-31.238394 v -2.943436 l -0.0944,-1.867339 c -0.25199,-1.871388 -0.23567,-7.922692 -0.15728,-27.756914 l 0.0944,-28.7380556 -4.78119,-0.03165 c -2.69243,-0.01647 -28.53068,-0.03155 -54.54329,-0.03165 z M 23.88624,16.387885 c 0.36605,-0.019 0.76595,0.03958 1.22676,0.126599 2.26447,0.42744 3.08645,2.043385 2.35914,4.652526 l -0.31455,1.107745 1.69857,-0.189899 c 0.93712,-0.118426 3.02174,-0.509233 4.62392,-0.854545 1.80929,-0.389878 5.8778,-0.712249 10.72621,-0.854546 6.89688,-0.20253 8.42371,-0.12592 13.02246,0.632996 18.82487,3.106457 28.40858,7.004997 39.94809,16.26802 6.37033,5.113601 10.61009,10.360386 13.3999,16.584518 0.33725,0.752325 0.78166,1.688764 1.00656,2.088889 1.16043,2.064352 3.57425,10.915691 3.46008,12.723237 -0.12735,2.016321 -0.0717,2.078205 1.5413,1.804041 1.22646,-0.208451 1.79132,-0.08396 3.0197,0.696296 2.12762,1.351433 2.78821,2.562221 2.89387,5.253874 0.16814,4.283301 -2.14099,6.551561 -6.66849,6.551521 h -2.51641 l -0.2831,3.51312 c -0.7079,9.36628 -2.89321,15.702723 -8.27272,24.022223 -1.4973,2.31554 -7.12723,8.29423 -9.49946,10.06465 -1.19854,0.89453 -8.65756,4.57883 -10.9464,5.41214 -2.54369,0.92603 -5.47654,1.66524 -9.15347,2.31044 -3.03519,0.53255 -10.49207,0.69758 -14.65812,0.31649 -3.06063,-0.27998 -9.77993,-2.22828 -13.02245,-3.76633 -3.89456,-1.84744 -7.59632,-4.07139 -10.34875,-6.29833 C 32.85574,115.0963 26.60391,106.87285 24.76699,102.31721 23.47281,99.107541 21.94393,91.512247 21.55856,86.460637 l -0.31455,-3.86128 h -1.98168 c -2.42646,-0.006 -3.32828,-0.7341 -4.18354,-3.25993 -0.89132,-2.632096 -0.7772,-4.404621 0.40892,-6.171725 1.38263,-2.059971 1.53084,-2.150801 4.15208,-2.02559 2.71486,0.129679 2.57561,0.332522 3.74317,-4.969025 1.22197,-5.548572 2.46356,-9.034496 5.34739,-15.065325 2.51558,-5.260631 2.52682,-5.288622 7.42342,-10.159599 6.08835,-6.056362 11.09798,-9.2217 17.48909,-11.077446 2.93343,-0.851698 3.73552,-1.496273 2.48495,-1.993939 -0.38289,-0.152376 -3.05873,-0.355825 -5.94503,-0.474747 -4.00253,-0.164924 -5.98921,-0.07336 -8.36709,0.411446 -6.77409,1.381098 -10.19406,3.059057 -15.5074,7.564315 -3.11915,2.64467 -3.47039,3.525305 -1.76148,4.494276 2.43926,1.383011 0.93562,5.400527 -2.01314,5.380474 -2.92321,-0.01985 -4.09616,-2.750539 -2.83097,-6.583168 0.44321,-1.342644 0.50497,-2.183667 0.25165,-2.500339 -0.20873,-0.260904 -0.47592,-1.083578 -0.6291,-1.80404 -0.15318,-0.720473 -0.5907,-1.607143 -0.97512,-1.99394 -0.3844,-0.386786 -0.83281,-1.068074 -0.97511,-1.519192 -0.24414,-0.77404 -0.11624,-0.822866 2.20187,-0.822897 1.35096,0 3.07196,-0.167941 3.80607,-0.379796 1.39793,-0.40341 4.27792,-2.973475 4.27792,-3.797982 0,-0.410586 -3.46153,-1.709061 -4.56101,-1.709092 -0.89493,-10e-7 -2.40642,-1.67884 -2.64224,-2.943435 -0.20168,-1.081959 -0.0725,-1.669896 0.72347,-2.880135 0.84798,-1.28933 1.60709,-1.87362 2.70514,-1.930641 z m 43.56544,17.597312 c -0.61907,0.0052 -1.27732,0.03253 -1.91877,0.0633 -5.39251,0.258405 -8.93941,1.143576 -13.58864,3.386532 -7.11642,3.433265 -11.8628,7.977806 -14.8783,14.242429 -2.15717,4.481803 -2.6752,6.471437 -3.3657,12.723237 -0.82113,7.433903 -1.01702,6.766371 1.63567,6.456569 1.65276,-0.19302 2.67054,-0.07735 3.80608,0.379797 1.34982,0.543424 1.6411,0.892748 2.35913,2.848485 0.58302,1.588043 0.79558,2.973972 0.72347,4.715831 -0.0559,1.35132 -0.17046,2.49536 -0.25164,2.56363 -1.52654,1.28421 -5.98936,4.52597 -6.22814,4.52593 -0.17745,0 -0.27439,-0.54408 -0.22018,-1.23434 0.074,-0.94236 -0.0732,-1.28356 -0.59765,-1.39259 -1.50539,-0.31286 -1.6733,0.36679 -1.35256,6.04511 0.38163,6.75819 1.30185,10.401664 3.9948,15.951513 1.86306,3.83952 2.52464,4.72818 6.07085,8.38721 5.33085,5.50048 8.16392,7.22641 15.28722,9.24176 5.62746,1.59217 12.14926,1.06066 19.84822,-1.61415 8.80725,-3.05987 14.06843,-7.17752 18.1811,-14.30572 1.48956,-2.58168 2.90649,-6.34823 3.5859,-9.526593 0.57916,-2.70959 0.93064,-15.58492 0.44036,-16.07813 -0.12603,-0.12682 -1.00468,0.23367 -1.95021,0.79125 -1.3291,0.7837 -2.02932,0.95214 -3.05115,0.75959 -1.99444,-0.37569 -4.18475,-1.72104 -5.03283,-3.10168 -2.85876,-4.654225 2.46819,-11.78408 6.85723,-9.178453 1.15093,0.68318 1.38132,0.723662 1.57275,0.22155 C 99.78672,69.787366 99.25241,62.316272 98.56087,59.336721 96.92084,52.270962 94.47876,47.534904 90.22524,43.3219 83.57098,36.731098 76.73655,33.907859 67.45168,33.985197 Z m -6.9516,3.861281 c 0.11933,-2e-6 0.91255,0.547881 1.76149,1.234344 1.4396,1.164076 1.78802,1.252209 5.1272,1.392592 2.28311,0.09598 4.36259,0.448821 5.72484,0.949496 1.17492,0.431844 2.9077,0.978634 3.86899,1.202694 3.39839,0.792068 6.23978,3.436445 7.58071,7.057915 0.8538,2.30603 0.63244,7.085118 -0.56621,11.773741 -0.4346,1.699925 -0.72453,3.163951 -0.62909,3.259936 0.0953,0.09595 0.733,-0.483854 1.41548,-1.265994 0.68248,-0.782089 1.30283,-1.347718 1.38403,-1.265995 0.16108,0.162099 -0.79717,2.767776 -1.44695,3.92458 -1.25716,2.238265 2.84501,0.215179 5.31594,-2.626937 0.98529,-1.133343 1.73682,-1.725366 1.76148,-1.392593 0.17517,2.360556 -0.90938,4.73896 -2.92534,6.519868 -1.64033,1.449176 -2.6959,1.842397 -3.64879,1.329294 -0.84267,-0.453775 -2.055,0.103041 -1.44694,0.664646 0.21189,0.195644 1.22162,0.665791 2.23331,1.044445 3.02527,1.132497 3.05372,1.564717 0.2202,2.911785 -3.10665,1.476841 -3.90659,2.193401 -5.4732,5.127272 -0.69222,1.29624 -1.58589,3.03404 -2.01313,3.82963 -1.2217,2.27488 -3.09719,4.8085 -4.65537,6.29832 -1.40683,1.34519 -3.22803,4.30957 -2.64225,4.30438 0.16457,-10e-4 0.72416,-0.65535 1.25821,-1.45589 1.47195,-2.20633 6.28079,-6.91474 8.24126,-8.07071 0.95674,-0.56419 2.22386,-1.04441 2.79952,-1.04445 1.69213,0 3.70991,-1.0335 4.12062,-2.12054 0.57709,-1.52719 1.16385,-1.19413 1.16385,0.66465 3e-5,2.45592 -1.66507,4.36689 -4.37227,5.00068 -4.0229,0.94182 -11.1666,4.92754 -11.1666,6.23501 -10e-6,0.23596 -0.29355,0.96109 -0.6291,1.61415 -0.56717,1.1035 -0.53159,1.22451 0.12582,1.70908 0.60349,0.44487 0.74588,0.43083 1.03802,-0.1266 0.5766,-1.10028 2.69838,-3.24567 3.80608,-3.82962 0.57689,-0.30408 1.90006,-0.51586 2.92534,-0.50639 1.66204,0.0152 2.46795,0.22781 5.34738,1.36093 0.59222,0.23307 0.67199,0.16707 0.34601,-0.1899 -0.23525,-0.25758 -1.44503,-0.90297 -2.70515,-1.42423 -1.8381,-0.76034 -2.07054,-0.942 -1.1953,-0.9495 0.62673,-0.005 0.98708,-0.15532 0.84929,-0.3798 -0.13206,-0.21494 -0.83771,-0.41141 -1.57276,-0.41145 -1.77019,0 -1.69764,-0.6299 0.12582,-1.13939 2.07963,-0.58114 2.94112,-0.50976 3.99481,0.31649 3.01834,2.36684 5.93523,2.67779 7.48633,0.8229 1.25499,-1.50068 1.56793,-1.46339 1.2582,0.095 -0.82893,4.17025 -5.28083,5.82377 -10.06565,3.73467 -2.24105,-0.9784 -5.77548,-1.16961 -6.57414,-0.34814 -0.39137,0.40257 -0.21395,0.46121 0.91221,0.25319 2.83689,-0.524 5.56402,1.73865 4.37227,3.63974 -0.52374,0.835434 -1.16385,0.968464 -1.16385,0.25319 10e-6,-0.32839 0.13651,-0.56965 0.31456,-0.56969 0.17794,0 0.346,-0.19647 0.346,-0.41146 -10e-6,-0.21494 -0.20006,-0.33854 -0.44036,-0.28484 -0.24029,0.0537 -0.52134,-0.14447 -0.62911,-0.4431 -0.12985,-0.35959 -0.0409,-0.45467 0.28309,-0.2532 0.32217,0.20037 0.40302,0.13601 0.2831,-0.22154 -0.12806,-0.38186 -0.81576,-0.54865 -2.39059,-0.53807 -2.15755,0.0145 -2.2972,0.093 -3.96335,1.86737 -0.95099,1.01269 -1.96683,1.835704 -2.23332,1.835674 -1.10324,0 -6.85723,-3.135584 -6.85723,-3.734674 -1e-5,-0.34252 0.38924,-1.34597 0.88074,-2.24715 0.49142,-0.90116 1.27918,-2.62436 1.73003,-3.82962 0.45096,-1.20524 1.75845,-3.47488 2.89388,-5.06398 2.53232,-3.54392 8.18478,-10.665843 8.61873,-10.855894 0.90613,-0.396916 2.36128,-1.99552 2.07603,-2.278789 -0.35076,-0.348331 -5.12151,4.587952 -7.73797,8.007413 -0.86777,1.13417 -1.65142,1.97801 -1.73003,1.89899 -0.0785,-0.0791 0.75819,-1.85835 1.85585,-3.956232 3.31845,-6.34252 5.95029,-13.362797 4.71827,-12.596638 -0.21954,0.136506 -0.4937,0.691314 -0.62909,1.234344 -0.35325,1.415956 -4.76961,10.598149 -6.00795,12.501688 -1.6216,2.492528 -1.92032,3.009208 -2.95679,4.969018 -1.25918,2.3811 -1.6002,2.54591 -2.13895,1.0128 -0.39568,-1.12597 -0.49538,-1.19441 -0.84929,-0.56969 -0.27884,0.49191 -0.24108,0.86569 0.0629,1.23433 1.4205,1.72209 1.10465,5.75148 -0.6291,8.38722 -1.37315,2.08761 -1.96114,2.75358 -2.42205,2.75354 -0.78508,0 -0.90242,-0.80283 -0.44037,-2.88014 0.3563,-1.60239 0.35763,-2.49943 0,-3.98789 -0.92927,-3.86699 -0.92261,-3.88705 0.0944,-4.55757 0.52344,-0.34509 1.31112,-1.30006 1.73005,-2.12054 6.72538,-13.171585 10.04951,-20.252233 10.56894,-22.439737 0.33592,-1.414307 0.79294,-2.631607 1.00656,-2.721888 0.23866,-0.100907 0.44465,1.472271 0.56619,4.11448 l 0.2202,4.304379 1.00656,-2.183838 c 1.56631,-3.316041 2.00709,-5.290184 2.01313,-9.146805 0.004,-2.810697 -0.16959,-3.890024 -0.84929,-5.348824 -0.99964,-2.145374 -2.63801,-3.643469 -4.561,-4.177779 -1.70709,-0.474259 -2.9058,-0.02153 -4.90702,1.86734 -1.23105,1.161816 -1.44694,1.632008 -1.44694,3.006736 10e-6,3.052294 2.42888,4.583889 5.15866,3.259934 0.60348,-0.292726 0.51421,-0.124402 -0.31455,0.601346 -0.97854,0.856777 -1.44633,1.004308 -2.89389,0.854546 -1.22741,-0.12693 -1.90921,-0.453398 -2.39059,-1.107744 -2.00274,-2.722127 -1.96612,-2.728754 -1.79294,0.253198 0.1132,1.949452 0.54624,3.760266 1.5413,6.26667 1.65964,4.180176 2.1368,6.198264 1.85587,7.97576 l -0.18875,1.297643 -0.78637,-0.886197 c -0.42725,-0.477962 -1.78386,-1.55475 -2.98825,-2.405388 -2.16693,-1.530382 -2.17469,-1.572191 -2.86241,-4.620876 -0.38223,-1.694533 -0.86227,-2.989416 -1.03803,-2.880135 -0.61733,0.383926 -0.30644,3.46303 0.47183,4.747476 0.82724,1.365226 1.11445,5.950211 0.37746,5.95017 -0.20998,2e-6 -0.81622,-0.865747 -1.35257,-1.930639 -0.89274,-1.772767 -0.94417,-2.242126 -0.75493,-5.538724 0.14727,-2.566692 0.0794,-3.68713 -0.25164,-3.892931 -0.34579,-0.215068 -0.2504,-0.884726 0.40892,-2.658585 0.92279,-2.482919 1.57276,-3.072113 1.57276,-1.424244 0,0.529827 0.23774,1.705872 0.53473,2.626937 0.29701,0.921037 0.64984,2.185288 0.78639,2.785186 0.13646,0.599901 0.38728,0.997422 0.56619,0.886195 0.17882,-0.111313 -0.061,-1.918789 -0.56619,-4.019529 -0.50529,-2.100782 -0.94327,-4.10578 -0.94366,-4.462627 -0.002,-1.935069 7.02353,-8.165618 9.21637,-8.165659 0.4829,-3e-6 0.9122,-0.164813 0.9122,-0.379799 1e-5,-0.214947 -0.68414,-0.411407 -1.50985,-0.411448 -1.54297,-2e-6 -2.38202,0.498061 -5.09574,3.038385 -0.76546,0.716632 -2.19366,1.778651 -3.20842,2.342088 -1.5033,0.83478 -1.85585,1.217612 -1.85585,2.08889 -10e-6,0.668657 -0.77786,2.167239 -2.07605,3.987879 -2.84662,3.992192 -2.84641,3.966299 -1.88731,3.449833 0.43901,-0.236394 0.91714,-0.443066 1.03802,-0.443096 0.81872,0 -0.62391,3.307666 -3.80608,8.703706 -0.60213,1.021 -0.91692,1.867371 -0.69202,1.867341 0.22501,-3e-6 0.86269,-0.791723 1.41548,-1.740742 0.55269,-0.949047 1.25845,-1.960234 1.60422,-2.24714 0.56753,-0.47108 0.61433,-0.360351 0.37746,1.139395 -0.60282,3.816184 0.97055,0.75671 2.04459,-3.987879 0.31155,-1.376012 0.34313,-1.174468 0.37746,1.77239 0.0215,1.841269 -0.14701,4.379701 -0.37746,5.633673 -0.3515,1.91385 -0.30576,2.573856 0.25164,4.08283 0.36519,0.988682 1.12112,2.257419 1.66713,2.848485 0.96071,1.040109 0.95248,1.076136 0.15728,1.076094 -1.2739,10e-7 -3.22947,-2.422848 -3.80608,-4.747475 -0.45755,-1.844809 -1.15545,-2.104457 -2.79952,-1.012797 -5.15479,3.422972 -10.66092,2.53287 -14.3121,-2.310437 -2.36411,-3.136011 -2.11303,-6.55719 0.72347,-9.748151 2.61177,-2.93806 2.86268,-4.842386 0.62909,-4.842427 -0.87496,3e-6 -1.13221,-0.151827 -1.03802,-0.632996 0.38574,-1.972401 3.33156,-1.404302 4.12064,0.791246 0.6247,1.738296 0.57481,2.600827 -0.18874,3.449832 -0.71211,0.791675 -0.38876,1.498897 0.34601,0.759596 0.6184,-0.622261 1.10093,-0.579096 1.10093,0.09495 10e-6,0.304215 -0.57651,1.068135 -1.2582,1.677441 -4.14683,3.706763 -4.2488,3.839831 -3.96335,5.665322 0.51568,3.299047 2.48495,4.825868 2.48495,1.930641 -10e-6,-1.236257 0.15124,-1.557051 0.84929,-1.74074 1.11909,-0.294444 1.36721,-0.01796 0.78638,0.917845 -0.66305,1.068406 -0.60429,1.953681 0.2831,3.418182 0.63992,1.055897 1.00333,1.266034 2.17041,1.265994 1.92394,0 4.0558,-2.099889 4.05772,-3.98788 7.6e-4,-0.72007 0.51857,-2.535602 1.13239,-4.051181 0.6138,-1.515576 1.20799,-3.293689 1.35256,-3.95623 l 0.2831,-1.202693 -1.69858,0.189899 c -1.72658,0.195804 -4.15209,-0.651673 -4.15209,-1.455892 10e-6,-0.209449 0.9299,-0.379769 2.07606,-0.3798 2.46584,2e-6 3.62025,-0.767577 5.12719,-3.354882 0.76901,-1.320319 1.32304,-1.822779 2.42204,-2.120541 0.78929,-0.213852 1.81266,-0.629583 2.23333,-0.949494 0.75466,-0.574151 0.75266,-0.589082 -0.0629,-0.601348 -0.4546,-0.0068 -1.43793,0.230037 -2.17042,0.538048 -1.52634,0.641665 -4.71105,0.557017 -5.56756,-0.15825 -1.04126,-0.869475 -0.6889,-1.545262 0.692,-1.329291 1.72908,0.270476 4.35076,-0.756002 6.16522,-2.405389 1.46114,-1.328289 1.6012,-1.368814 4.34082,-1.297645 2.8188,0.07319 3.77462,-0.150165 3.77462,-0.886195 -1e-5,-0.229681 -0.56481,-0.281242 -1.38402,-0.126599 -3.16265,0.596924 -6.79432,-1.608105 -6.79432,-4.146129 -1e-5,-0.628348 0.10084,-1.139354 0.22018,-1.139395 z M 87.23699,67.66063 c -0.0464,0.009 -0.10381,0.03013 -0.15727,0.0633 -0.21364,0.132849 -0.37746,0.418041 -0.37746,0.632996 2e-5,0.214947 0.16383,0.291129 0.37746,0.15825 0.21361,-0.132836 0.40891,-0.418042 0.40891,-0.632997 2e-5,-0.16118 -0.11232,-0.248641 -0.25164,-0.221549 z m 29.56787,6.836366 c -0.67843,0.01508 -1.37706,0.387253 -1.85584,1.202694 -0.904,1.539994 -0.83639,2.260123 0.31454,3.418187 1.64702,1.6572 3.74317,0.51864 3.74317,-2.025594 -1e-5,-1.628606 -1.0711,-2.620496 -2.20187,-2.595287 z m -21.57825,0.126599 c -0.6359,0.04178 -1.26444,0.291644 -1.79295,0.791246 -1.13966,1.077202 -1.15647,2.537153 -0.0315,3.481476 1.44576,1.21349 3.34198,0.89689 4.08918,-0.69629 0.70313,-1.499157 0.60077,-2.317386 -0.37746,-3.006735 -0.60336,-0.425283 -1.25141,-0.611475 -1.88731,-0.569697 z m -58.8212,0.759597 c -0.53511,0.02188 -1.14694,0.203074 -1.66713,0.569696 -1.03741,0.731207 -1.18005,2.927199 -0.25164,3.861279 0.83881,0.844 2.63971,0.78545 3.46007,-0.1266 0.70955,-0.78898 0.552,-2.786469 -0.2831,-3.829627 -0.26765,-0.334348 -0.7231,-0.496675 -1.2582,-0.474748 z M 20.58345,75.85794 c -0.11227,0.01141 -0.24769,0.04677 -0.40891,0.09495 -1.96872,0.588425 -2.37325,2.422927 -0.88075,3.924577 1.17683,1.18414 1.45907,1.16456 2.76806,0.0316 0.79902,-0.69159 0.9672,-1.09945 0.75492,-1.77239 -0.33602,-1.065348 -1.14985,-0.885474 -1.32113,0.28485 -0.14465,0.98982 -1.25865,1.12984 -1.98167,0.2532 -0.38575,-0.46768 -0.38574,-0.703306 0,-1.171045 0.26593,-0.322415 0.71224,-0.601305 1.00657,-0.601346 0.29424,0 0.53474,-0.264431 0.53474,-0.601348 0,-0.339113 -0.13542,-0.477359 -0.47183,-0.443096 z m 96.22141,0.189898 c 0.21066,-0.01829 0.44312,0.0095 0.66057,0.126599 0.86453,0.465523 0.92601,1.767794 0.0944,2.08889 -0.85891,0.33164 -1.10582,0.27995 -1.60421,-0.22155 -0.74511,-0.749697 -0.0633,-1.914647 0.84928,-1.993939 z m -51.3034,0.126599 c 0.31126,0.0044 -0.004,0.491975 -0.97512,1.519193 -1.4264,1.508777 -2.93257,5.138627 -2.45349,5.918517 0.11694,0.19037 0.10356,0.6798 -0.0315,1.10774 -0.32865,1.04195 -0.83627,0.98944 -1.60421,-0.1899 -0.59049,-0.90668 -0.58093,-1.1026 0.0314,-3.00673 0.70197,-2.18225 2.05922,-3.9407 3.77464,-4.842422 0.65405,-0.343831 1.07154,-0.509051 1.2582,-0.506398 z m 29.81951,0.15825 c 0.12896,-0.02601 0.25123,-0.0077 0.37747,0 0.50499,0.03064 0.962,0.31753 1.03802,0.854547 0.16674,1.178413 -1.11358,1.850713 -2.1075,1.107743 -0.58529,-0.437528 -0.65832,-0.701896 -0.31455,-1.265994 0.23466,-0.385091 0.6197,-0.618277 1.00656,-0.696296 z m -59.38739,0.348148 c 0.0933,-0.01673 0.18914,-0.0044 0.28311,0 0.81423,0.03815 1.58979,0.731825 1.47838,1.519192 -0.12113,0.85578 -1.75412,1.43172 -2.35913,0.8229 -0.50777,-0.51083 -0.30424,-2.008154 0.31454,-2.247143 0.0911,-0.03515 0.18977,-0.07821 0.2831,-0.09495 z m 17.01726,0.284848 c 0.18809,0.0017 0.25262,0.491834 0.0944,1.487544 -0.47515,2.98961 0.23829,3.84078 3.68026,4.52593 1.67044,0.3325 4.46723,3.04944 5.47321,5.28552 0.83555,1.85758 1.04109,4.87102 0.40891,5.85522 -0.43125,0.67149 -0.46381,0.43126 -0.37745,-1.80404 0.066,-1.70579 -0.77991,-4.15591 -1.82441,-5.31717 -1.03791,-1.15408 -1.40004,-0.78967 -0.5662,0.56969 0.92286,1.50469 1.53673,5.92207 0.88074,6.32997 -0.87464,0.54394 -0.37979,1.3361 1.03803,1.67745 1.22399,0.29471 1.42917,0.47558 1.32112,1.23433 -0.16982,1.192174 0.21314,2.785234 0.69201,2.785194 0.20952,0 0.40892,-0.73644 0.40892,-1.614144 -1e-5,-1.10498 0.13561,-1.53957 0.47182,-1.42424 0.26709,0.0917 0.43857,0.5201 0.37747,0.94949 -0.0611,0.42938 0.0671,1.264094 0.2831,1.835704 0.456,1.206709 1.38044,1.438679 1.00656,0.25319 -0.28055,-0.88944 0.48421,-1.09638 0.81784,-0.22154 0.11666,0.30581 0.41318,0.62021 0.69201,0.727939 0.40381,0.15589 0.45065,-0.0744 0.12582,-1.139389 -0.54103,-1.773874 -0.21328,-1.981914 1.44694,-0.9495 1.55877,0.96933 1.60778,1.08076 0.81783,2.215479 -0.54696,0.78579 -0.44737,1.29769 0.25164,1.29765 0.18255,0 0.51156,-0.41209 0.75493,-0.94948 0.24326,-0.53738 0.61541,-0.981119 0.81784,-0.981159 0.20254,0 0.25978,0.443819 0.12582,0.981159 -0.30198,1.21051 0.75468,1.38733 1.13238,0.18989 0.13561,-0.4299 0.53201,-0.791199 0.88075,-0.791239 0.49323,0 0.51978,0.109989 0.15728,0.474749 -0.25636,0.25791 -0.44038,0.70171 -0.44038,0.98113 1e-5,0.80516 0.8136,0.57866 1.03803,-0.28484 0.11169,-0.42991 0.45189,-0.79121 0.75492,-0.79125 0.42437,0 0.46699,0.17737 0.15728,0.75959 -0.22118,0.41571 -0.40893,0.94196 -0.40893,1.17105 -10e-6,0.77915 0.78268,0.44261 1.22676,-0.53805 0.24328,-0.53738 0.689,-0.9811 0.97511,-0.98114 0.60895,0 0.68751,0.63187 0.12582,0.98114 -0.50038,0.31116 -0.49868,1.36097 0,1.36093 0.2095,0 0.49512,-0.44372 0.62911,-0.98112 0.13408,-0.53738 0.45762,-0.98111 0.75491,-0.98115 0.62529,0 0.7274,0.62667 0.15728,0.98115 -0.5219,0.32456 -0.49848,1.36094 0.0315,1.36091 0.23217,0 0.62303,-0.50467 0.84927,-1.10773 0.34397,-0.91699 0.58269,-1.05478 1.50986,-0.91784 1.29743,0.19159 1.2985,0.18653 0.47182,1.4559 -0.34931,0.53645 -0.50006,1.11149 -0.346,1.26597 0.34299,0.34385 1.76149,-1.33596 1.76149,-2.08887 10e-6,-0.29857 0.19529,-0.56966 0.40891,-0.5697 0.56878,0 0.43897,0.69518 -0.28309,1.80404 -0.34941,0.53646 -0.50808,1.0713 -0.37746,1.20268 0.36921,0.37152 1.2977,-0.55629 1.82441,-1.83567 0.26249,-0.6377 0.63012,-1.17101 0.81782,-1.17105 0.57253,0 0.35734,0.8095 -0.50328,2.02558 -0.73113,1.03312 -0.73818,1.24329 -0.22018,1.83568 0.62594,0.71583 0.92596,5.12732 0.346,5.12728 -0.18294,0 -0.28502,-0.41083 -0.18872,-0.91784 0.1173,-0.61747 -0.0347,-1.00234 -0.47184,-1.17104 -0.86194,-0.33283 -1.35257,0.0166 -1.35257,0.94949 10e-6,0.41718 -0.18563,0.75965 -0.40892,0.7596 -0.25101,0 -0.30989,-0.5112 -0.15727,-1.3293 0.28927,-1.55171 -0.42012,-2.2881 -0.91221,-0.94948 -0.29826,0.81124 -0.3713,0.76495 -0.62909,-0.47475 l -0.25165,-1.36095 -0.75492,1.39259 -0.72347,1.36094 0.22018,-1.45588 c 0.2772,-1.81557 -0.3834,-1.97868 -0.94366,-0.22156 l -0.4089,1.266 -0.0315,-1.29765 c -0.0458,-1.50503 -0.84369,-1.52405 -1.22676,-0.0316 -0.19985,0.77854 -0.29137,0.60328 -0.53473,-0.91785 -0.31776,-1.9862 -1.00657,-2.15111 -1.00657,-0.2532 -1e-5,2.01337 -1.13545,1.14256 -1.1953,-0.91784 v -0.85455 l -0.37747,0.85455 c -0.49542,1.24017 -0.97839,1.10309 -1.3211,-0.3798 -0.20837,-0.90158 -0.34686,-1.0705 -0.47184,-0.5697 -0.20148,0.80754 -1.09844,0.7095 -1.10093,-0.12659 -0.003,-0.90242 -0.32836,-0.98447 -1.32111,-0.28487 l -0.94366,0.66467 0.94366,0.75958 0.94365,0.79125 -0.97511,-0.22154 -0.97511,-0.18992 0.88075,0.79126 c 0.48348,0.42928 1.08835,0.87305 1.35257,0.98115 0.37225,0.15229 0.3672,0.25598 -0.0315,0.53804 -0.3865,0.27342 -0.0982,0.63574 1.16384,1.42425 0.92372,0.57708 1.29844,0.92169 0.81784,0.79124 -1.08731,-0.29515 -1.15454,0.44194 -0.0944,1.0128 0.42724,0.23006 0.78638,0.61036 0.78638,0.85454 10e-6,0.24423 0.23812,0.74299 0.5662,1.10775 0.54821,0.60959 0.53813,0.65088 -0.37746,0.47474 -0.7255,-0.13952 -0.93996,-0.36752 -0.78639,-0.85454 0.30427,-0.96461 -1.42808,-1.70614 -2.83097,-1.20269 l -1.03802,0.37979 0.88075,-0.75959 c 1.05377,-0.90137 0.81764,-1.78071 -0.31455,-1.17104 -1.07958,0.58134 -1.48847,0.43264 -0.6291,-0.22155 0.99736,-0.75924 0.50127,-1.19448 -0.72347,-0.633 -1.18276,0.54226 -1.32217,-0.10066 -0.15728,-0.72796 0.54591,-0.29395 0.69951,-0.5938 0.44037,-0.85453 -0.25914,-0.26085 -0.74008,-0.16036 -1.41548,0.28485 -0.55693,0.36716 -1.00656,0.47495 -1.00656,0.2532 0,-0.22175 0.20474,-0.47371 0.47183,-0.56971 0.26709,-0.0959 0.37528,-0.30718 0.22018,-0.47475 -0.15503,-0.16752 -0.54998,-0.0862 -0.88075,0.1899 -0.33075,0.27624 -0.73186,0.403 -0.88074,0.25322 -0.14889,-0.14976 -0.0249,-0.44138 0.28309,-0.63301 0.30811,-0.19156 0.43055,-0.45311 0.28311,-0.60135 -0.14736,-0.14831 -0.69347,-0.003 -1.22677,0.34815 -1.53332,1.01096 -1.64182,0.73906 -0.22018,-0.53804 1.57216,-1.4123 1.26242,-1.93699 -0.59764,-1.04446 -0.74501,0.35748 -1.35258,0.50501 -1.35258,0.3165 1e-5,-0.18843 0.27721,-0.44595 0.59765,-0.5697 0.86997,-0.33591 0.70114,-1.15198 -0.18873,-0.91784 -0.41999,0.11054 -0.96284,-0.0598 -1.22676,-0.3798 -0.42035,-0.5097 -0.56286,-0.51557 -1.00656,0.095 -0.8761,1.2056 -0.60148,3.04036 0.66056,4.46262 1.13323,1.27723 1.81633,2.63512 1.47839,2.97508 -0.0931,0.0936 -0.84523,-0.28314 -1.63566,-0.82289 -0.79054,-0.53975 -1.53765,-0.98111 -1.69859,-0.98114 -0.16082,0 -0.27507,1.1521 -0.22018,2.56363 0.0706,1.81253 0.35259,2.96244 0.94366,3.92458 0.46023,0.74935 0.77968,1.46263 0.692,1.55084 -0.0877,0.0882 -0.7114,-0.18977 -1.38402,-0.60134 -0.97079,-0.59396 -1.41109,-1.29108 -2.04459,-3.35488 -1.10331,-3.59424 -1.03907,-6.32858 0.15727,-8.10236 1.0644,-1.5781 1.46944,-3.83214 0.72347,-4.08282 -0.26698,-0.0897 -0.50328,0.10102 -0.50328,0.41145 10e-6,0.31045 -0.43856,1.94399 -0.97511,3.63971 -0.89216,2.81997 -0.92842,3.3326 -0.56618,6.01348 0.29969,2.21844 0.67646,3.33122 1.57274,4.62087 0.6513,0.93714 1.13508,1.77195 1.06948,1.8357 -0.0655,0.0637 -0.77115,-0.24946 -1.57275,-0.66465 -2.14083,-1.10879 -3.47901,-3.33796 -3.46007,-5.79192 v -1.99393 l -1.91877,0.25319 c -2.26599,0.30245 -5.16075,-0.59764 -5.81921,-1.83569 -0.6012,-1.13022 -0.16865,-1.31669 0.97511,-0.41146 1.86009,1.47225 5.2206,-0.23594 5.25302,-2.65858 0.007,-0.53019 0.27777,-1.70141 0.6291,-2.62692 0.35121,-0.92549 0.56382,-1.806449 0.44037,-1.930649 -0.44416,-0.44688 -1.04189,0.317419 -1.28967,1.645799 -0.13892,0.74535 -0.46832,1.32933 -0.75491,1.32929 -0.4173,0 -0.38902,-0.34296 0.12582,-1.74074 0.62651,-1.701109 0.5164,-2.471559 -0.25165,-1.993939 -0.20922,0.13015 -0.48499,0.94538 -0.6291,1.804039 -0.31869,1.8979 -1.12875,2.02747 -2.92533,0.5064 -1.29333,-1.09491 -1.30154,-1.07009 -0.5662,-4.684183 0.14172,-0.69643 -0.0128,-2.31537 -0.346,-3.70303 -0.32656,-1.35969 -0.68195,-3.20237 -0.81784,-4.08284 -0.24296,-1.57483 -0.22773,-1.61226 0.94366,-1.64578 0.87638,-0.025 1.3566,0.2256 1.85586,0.98114 2.12255,3.21256 7.19267,7.15293 9.21636,7.15288 0.57289,0 1.09468,-3.95876 0.72347,-5.47544 -0.33919,-1.38593 -0.83769,-1.88812 -2.83096,-2.91177 -3.72521,-1.913 -5.07939,-4.85622 -3.90044,-8.45052 0.32608,-0.994243 0.62974,-1.489194 0.81783,-1.487544 z m 19.84823,4.620884 c 0.0203,0.002 0.0173,0.0173 0.0314,0.0316 0.10587,0.10718 -0.12585,0.60031 -0.53473,1.10774 -0.40889,0.50745 -0.75493,0.76738 -0.75493,0.56971 -10e-6,-0.49072 0.95423,-1.74372 1.25822,-1.70909 z m -15.75906,2.75349 c -0.23388,0.007 -0.0324,0.3685 0.47183,0.79126 1.18621,0.99426 1.52863,1.00017 0.6291,0 -0.3867,-0.4299 -0.86693,-0.7984 -1.10093,-0.79126 z m -10.97785,0.1266 c 0.10115,-0.0147 0.27167,0.14325 0.56618,0.41145 0.39062,0.35575 0.93243,0.63305 1.19531,0.633 0.26275,0 0.36781,0.15891 0.25164,0.34815 -0.11628,0.18927 -0.65808,0.43472 -1.1953,0.53805 -0.86875,0.16711 -0.97511,0.0674 -0.97511,-0.98115 -10e-6,-0.62847 0.0271,-0.93063 0.15728,-0.9495 z m 24.47213,0.41145 c 0.13924,-0.0236 0.25165,0.0508 0.25165,0.22156 0,0.22761 -0.19531,0.41149 -0.40893,0.41144 -0.21362,0 -0.37755,-0.0635 -0.37746,-0.15824 1e-5,-0.0948 0.16384,-0.27858 0.37746,-0.41145 0.0534,-0.0332 0.11081,-0.0555 0.15728,-0.0633 z m -26.42236,0.4431 c 0.14419,-0.0375 0.27027,0.36652 0.31455,1.36096 0.12088,2.71759 0.12319,2.91382 0.47183,3.48148 0.18464,0.30062 0.17739,0.61862 -0.0315,0.75958 -0.20312,0.13718 -0.49122,0.57338 -0.62911,0.9495 -0.58778,1.60304 -0.96318,0.50094 -0.84929,-2.40539 0.0931,-2.37309 0.44836,-4.07441 0.72347,-4.14613 z m 21.60971,0.98115 c -0.21361,0 -0.37746,0.24731 -0.37746,0.5697 1e-5,0.3224 0.16384,0.60137 0.37746,0.60134 0.21363,0 0.40893,-0.2789 0.40893,-0.60134 0,-0.32244 -0.19531,-0.56966 -0.40893,-0.5697 z m -17.42617,1.96229 c -0.15117,0 -0.56508,0.52624 -0.94366,1.17104 -0.37855,0.64485 -0.52454,1.17109 -0.31455,1.17105 0.2101,0 0.62399,-0.52616 0.94366,-1.17105 0.31967,-0.64484 0.46573,-1.171 0.31455,-1.17104 z m 0.44037,2.0256 c -0.28906,-9e-5 -0.72898,0.42802 -0.97511,1.17103 -0.25961,0.7838 -0.16042,1.21306 0.37746,1.80405 0.38729,0.42538 0.72386,0.80495 0.75493,0.8229 0.16773,0.0966 1.62422,-3.27151 1.47839,-3.41819 -0.0955,-0.0961 -0.42932,0.0446 -0.75491,0.3165 -0.49104,0.41012 -0.59766,0.36304 -0.59766,-0.1899 -1e-5,-0.3676 -0.10964,-0.50639 -0.2831,-0.50639 z m -3.49152,1.23432 c 0.18274,7.4e-4 0.20625,0.51498 0.0629,1.48755 -0.23869,1.61868 -0.21483,1.66665 0.40892,0.91785 0.62269,-0.74763 0.6342,-0.72965 0.40891,1.0128 -0.14476,1.11995 -0.0968,1.93088 0.15728,2.08889 0.22741,0.14139 0.3117,0.43291 0.18872,0.633 -0.38899,0.633404 -1.23285,0.372434 -1.82439,-0.53806 -1.00722,-1.55035 -1.16003,-2.56742 -0.50328,-3.22828 0.33507,-0.33712 0.59765,-0.95911 0.59765,-1.36094 -1e-5,-0.40182 0.19021,-0.81349 0.40891,-0.94949 0.0327,-0.0203 0.0683,-0.0634 0.0944,-0.0633 z m 6.79431,1.36096 c -0.62242,0.0155 -1.66094,0.41181 -2.01313,0.91784 -0.79845,1.147 -0.80877,2.02135 0,1.70909 0.4478,-0.17293 0.57006,-0.0745 0.40892,0.34815 -0.13292,0.3486 0.003,0.60139 0.31456,0.60135 0.4218,0 1.76149,-2.53332 1.76149,-3.32324 0,-0.18641 -0.18898,-0.26028 -0.47184,-0.25319 z m 1.35259,0.82289 c -0.28649,-0.006 -0.74254,0.49795 -1.10095,1.36095 -0.30952,0.74539 -0.53472,1.55053 -0.53472,1.77238 1e-5,0.58244 1.14969,0.48854 1.16383,-0.0949 0.007,-0.2711 0.18917,-0.18962 0.40892,0.1899 0.41769,0.72156 1.13239,0.94832 1.13239,0.34815 0,-0.19483 0.35913,-0.27068 0.78637,-0.15826 0.63064,0.16595 0.78639,0.007 0.78639,-0.8229 -1e-5,-0.5624 -0.1953,-1.01272 -0.40892,-1.01277 -0.21363,0 -0.37747,0.16488 -0.37747,0.37979 0,0.21494 -0.19529,0.41148 -0.40891,0.41144 -0.21362,0 -0.37746,-0.2789 -0.37746,-0.60134 0,-0.32244 -0.16385,-0.60132 -0.37747,-0.60136 -0.21361,0 -0.409,-0.24723 -0.40891,-0.56969 1e-5,-0.3979 -0.11117,-0.59771 -0.28309,-0.60135 z m 20.25714,1.7091 c 0.13929,-0.0236 0.25163,0.0508 0.25163,0.22155 1e-5,0.22761 -0.19529,0.44313 -0.40892,0.44309 -0.21362,0 -0.37746,-0.0951 -0.37746,-0.1899 -10e-6,-0.0948 0.16385,-0.27858 0.37746,-0.41144 0.0535,-0.0332 0.1109,-0.0554 0.15729,-0.0633 z m -16.45108,0.2532 c -0.21362,0 -0.40891,0.44381 -0.40891,0.98113 0,0.53738 0.1953,0.98119 0.40891,0.98115 0.21362,0 0.37747,-0.44373 0.37747,-0.98115 -1e-5,-0.53736 -0.16384,-0.98109 -0.37747,-0.98113 z m 2.79951,0.0949 c -0.40067,-0.002 -0.47266,1.04643 -0.0315,2.08888 l 0.47184,1.139404 0.15726,-1.329294 c 0.0789,-0.72587 -0.0294,-1.48555 -0.25164,-1.7091 -0.1241,-0.12482 -0.25354,-0.18943 -0.34601,-0.18989 z m -1.2582,0.31649 c -0.21362,0 -0.37746,0.24732 -0.37746,0.56969 10e-6,0.32244 0.16384,0.6014 0.37746,0.60136 0.21362,0 0.37738,-0.27888 0.37746,-0.60136 0,-0.32242 -0.16384,-0.56965 -0.37746,-0.56969 z m 3.05115,0 c -0.40057,0 -0.48278,2.457684 -0.0944,2.848494 0.56054,0.564 0.73955,0.19941 0.59765,-1.297654 -0.0815,-0.85979 -0.31214,-1.5508 -0.50329,-1.55084 z m -13.08535,1.55084 c -0.3386,0 -1.22676,1.721754 -1.22676,2.373733 0,0.72872 0.59147,0.33925 1.06948,-0.696289 0.56792,-1.23051 0.60833,-1.677404 0.15728,-1.677444 z m 1.50985,0.411454 c -0.35647,0.007 -0.78145,0.71777 -1.13239,2.025589 -0.31556,1.17639 -0.27275,1.45593 0.15727,1.45589 0.58227,0 1.62427,-2.954799 1.1953,-3.386529 -0.0762,-0.0767 -0.13795,-0.0966 -0.22018,-0.0949 z m 4.71827,1.55084 c -0.22337,0 -0.52075,0.567449 -0.66055,1.265999 -0.13971,0.69859 -0.33509,1.58615 -0.44038,1.96229 -0.12382,0.44235 0.0153,0.66465 0.40892,0.66462 0.3364,0 0.59765,-0.32309 0.59765,-0.72792 0,-0.40301 0.11806,-1.29053 0.25164,-1.96229 0.14802,-0.74485 0.0904,-1.202659 -0.15728,-1.202699 z m 1.88731,0.443109 c -0.0301,1.9e-4 -0.0624,0.021 -0.0944,0.0316 -0.53186,0.17844 -1.14803,2.0732 -0.78638,2.43703 0.34645,0.3487 1.2582,-0.99513 1.2582,-1.86733 -1e-5,-0.35588 -0.16631,-0.60286 -0.37746,-0.60135 z m 3.3028,1.10775 c -0.59821,0 -1.1816,2.50198 -0.75492,3.19662 0.14935,0.24309 0.49215,-0.25745 0.78638,-1.10775 0.65953,-1.90631 0.6315,-2.08883 -0.0315,-2.08887 z m 21.4839,0.79124 c -0.46617,0 -1.48718,1.10628 -1.50986,1.64577 -0.0246,0.58288 0.60644,0.24816 1.28967,-0.69628 0.44138,-0.61024 0.51173,-0.94945 0.22019,-0.94949 z m 8.4929,0.0949 c 0.4936,0.0259 0.88767,0.33874 0.6291,0.75959 -0.22379,0.36436 -0.31435,0.34899 -0.44038,-0.0316 -0.12093,-0.36502 -0.36704,-0.30659 -0.9122,0.1899 -0.40517,0.36885 -0.72356,0.47513 -0.72347,0.25318 -3e-5,-0.22193 0.24854,-0.62082 0.5662,-0.88618 0.26296,-0.21952 0.5846,-0.30041 0.88075,-0.28485 z m -3.11408,1.13939 c 0.14546,-0.008 0.10216,0.28864 -0.12582,0.88619 -0.12957,0.33999 -0.40688,0.60139 -0.59764,0.60135 -0.53732,0 -0.394,-0.6318 0.25164,-1.17106 0.23717,-0.198 0.38452,-0.31175 0.47182,-0.31648 z m 4.43519,0.31648 c 0.19403,0 0.0669,0.44384 -0.2831,0.98116 -0.34999,0.53737 -0.81253,0.98119 -1.00656,0.98115 -0.1939,0 -0.0669,-0.44374 0.28309,-0.98115 0.34988,-0.53736 0.81256,-0.98113 1.00657,-0.98116 z m -3.14552,0.41147 c 0.20081,-0.0694 0.11699,0.36408 -0.28309,1.17104 -0.3197,0.64484 -0.6637,1.17108 -0.75493,1.17104 -0.34662,0 -0.1172,-1.02178 0.37746,-1.67744 0.30302,-0.40156 0.53997,-0.62304 0.66056,-0.66464 z m 3.0197,1.20268 c 0.26208,-0.0206 0.47182,0.29473 0.47182,0.98114 -1e-5,0.57319 -0.14251,0.9327 -0.28309,0.79125 -0.14057,-0.1414 -0.46824,-0.0494 -0.75492,0.1899 -0.64881,0.54188 -0.71984,-0.14925 -0.12582,-1.26599 0.25081,-0.47157 0.48814,-0.68023 0.69201,-0.6963 z m -3.68026,2.46869 c 0.21436,-0.0245 0.22471,0.1013 0.0944,0.4431 -0.13059,0.34243 -0.22019,0.78378 -0.22019,0.98115 2e-5,0.19735 -0.19529,0.34818 -0.40891,0.34815 -0.63973,0 -0.42413,-1.44819 0.25164,-1.70909 0.11456,-0.0442 0.21165,-0.0551 0.28309,-0.0633 z m 1.35259,1.7724 c 0.54724,0 0.78545,0.43779 0.56618,1.01279 -0.31109,0.81558 -0.88084,0.6746 -0.88075,-0.22155 -3e-5,-0.42989 0.13651,-0.79121 0.31457,-0.79124 z m -15.47597,5.19057 c 0.14546,-0.0285 0.28212,0.0306 0.44038,0.1899 0.31651,0.31843 0.11821,0.59016 -0.75493,1.04444 -1.32268,0.68818 -2.64625,0.83557 -1.41548,0.15826 0.42725,-0.23515 0.99036,-0.67494 1.25821,-1.0128 0.17854,-0.22528 0.32637,-0.35131 0.47182,-0.3798 z m -1.76148,0.44309 c 0.11474,-0.0226 0.0222,0.0966 -0.28311,0.34815 -0.76767,0.6324 -0.51365,1.83569 0.37747,1.83569 0.70493,0 2.93016,-1.14495 3.27134,-1.67744 0.16265,-0.25376 0.50417,-0.15723 0.88075,0.22156 0.44244,0.44525 0.45505,0.68157 0.12582,1.01279 -0.54448,0.54787 -1.17777,0.59794 -0.8493,0.0633 0.13199,-0.2149 0.0563,-0.37979 -0.15727,-0.37979 -0.21364,0 -0.49715,0.16485 -0.6291,0.37979 -0.13207,0.21494 -0.52102,0.3798 -0.84929,0.3798 -0.32827,0 -1.03717,0.3264 -1.60422,0.72795 -0.80296,0.56871 -1.23821,0.65896 -1.91877,0.34816 -0.4807,-0.21952 -0.88074,-0.60244 -0.88074,-0.85455 10e-6,-0.49101 1.36934,-1.84572 2.32768,-2.31045 0.0863,-0.0419 0.15048,-0.0874 0.18874,-0.095 z m 2.70514,2.59529 c 0.33305,0 0.62911,0.0634 0.62911,0.15826 0,0.41246 -0.75346,0.58248 -0.97511,0.22155 -0.13417,-0.21845 0.0129,-0.3798 0.346,-0.37981 z m 28.68712,17.56566 c -68.7479,6.28337 -34.37395,3.14169 0,0 z"
     id="path9013"
     sodipodi:nodetypes="cccccccccccccccccccccccccscccccccccccccccccccccccccccccscccccsccccccccccccccccccccccccccccccccccsccccccccccccccccccccccccccccccccccsccccccccccccccccccccccccccccccccccccccccccccccccccccccccccccccccccccccccccccccccccccccccccccccccccccccccccsccccccccccccccccccccccccccccccccccccccccccccccccccccccccccccccccccccccccccccccccccccccccccccccccsccccccccccccccccccccccccccccccccccccccccccccccccccccccccccccccccccccccccccccccccccscccccccccccccccccccccccccccccccccccccccccccscccccsccccccccccccccccccccccccccccccccccccccccccccccccccccccccccccccccccccccccccsccccccccccccccccscccccccccccccccccccccccccccccccsccccccscccscscccccccccccscccccccccccccccccccccsccccccccccccscccccccccccccccccccccccccccccccccccccccccccccccccccccccccccccccccsccccscscccccccscccc" />
</svg>
